<svg width="148" height="30" viewBox="0 0 148 30" fill="none" xmlns="http://www.w3.org/2000/svg">
<path d="M17.3049 23.3038V2L1.91216 21.0253L17.3049 23.3038Z" fill="#1570EF"/>
<path d="M26.7686 25.5823L18.4451 6.78481L18.7872 23.5316L26.7686 25.5823Z" fill="#1570EF"/>
<path d="M17.3049 24.443L1 22.6203L3.73649 29L30.1892 28.4304L26.7686 26.8354L18.7872 24.7848L17.3049 24.443Z" fill="#1570EF"/>
<path d="M17.3049 23.3038V2L1.91216 21.0253L17.3049 23.3038Z" stroke="white"/>
<path d="M26.7686 25.5823L18.4451 6.78481L18.7872 23.5316L26.7686 25.5823Z" stroke="white"/>
<path d="M17.3049 24.443L1 22.6203L3.73649 29L30.1892 28.4304L26.7686 26.8354L18.7872 24.7848L17.3049 24.443Z" stroke="white"/>
<path d="M43.1196 24.1106C41.879 24.1106 40.7333 23.9574 39.6825 23.6509C38.6463 23.3298 37.756 22.892 37.0117 22.3374L37.8874 20.1263C38.3836 20.4766 38.9017 20.7758 39.4417 21.0239C39.9817 21.2574 40.5582 21.4398 41.1712 21.5712C41.7842 21.6879 42.4336 21.7463 43.1196 21.7463C44.2725 21.7463 45.1044 21.5566 45.6152 21.1771C46.126 20.7977 46.3814 20.3015 46.3814 19.6885C46.3814 19.1485 46.2063 18.7398 45.856 18.4625C45.5058 18.1706 44.8782 17.9298 43.9733 17.7401L41.4996 17.2366C40.0839 16.9447 39.0258 16.4558 38.3252 15.7698C37.6247 15.0839 37.2744 14.1644 37.2744 13.0115C37.2744 12.0482 37.5298 11.209 38.0406 10.4939C38.5514 9.77876 39.2666 9.22416 40.186 8.83011C41.1055 8.43605 42.1782 8.23903 43.4042 8.23903C44.4987 8.23903 45.5131 8.39957 46.4471 8.72065C47.3812 9.02714 48.162 9.47227 48.7896 10.0561L47.9139 12.1577C47.2863 11.6323 46.6004 11.2455 45.856 10.9974C45.1117 10.7347 44.2798 10.6034 43.3604 10.6034C42.3242 10.6034 41.5142 10.8077 40.9304 11.2163C40.3612 11.6104 40.0766 12.1577 40.0766 12.8582C40.0766 13.3982 40.2517 13.8288 40.602 14.1498C40.9669 14.4709 41.5798 14.719 42.4409 14.8942L44.8928 15.3758C46.3523 15.6677 47.4323 16.1493 48.1328 16.8206C48.8333 17.4774 49.1836 18.3677 49.1836 19.4915C49.1836 20.4109 48.9355 21.2209 48.4393 21.9215C47.9431 22.6074 47.2425 23.1474 46.3377 23.5415C45.4328 23.9209 44.3601 24.1106 43.1196 24.1106Z" fill="black"/>
<path d="M56.6166 24.1106C55.4782 24.1106 54.4931 23.8771 53.6612 23.4101C52.8293 22.9431 52.1798 22.279 51.7128 21.4179C51.2604 20.5569 51.0342 19.5352 51.0342 18.3531C51.0342 17.1709 51.2604 16.1566 51.7128 15.3101C52.1798 14.449 52.8293 13.785 53.6612 13.3179C54.4931 12.8509 55.4782 12.6174 56.6166 12.6174C57.755 12.6174 58.7401 12.8509 59.572 13.3179C60.4185 13.785 61.0679 14.449 61.5204 15.3101C61.9874 16.1566 62.2209 17.1709 62.2209 18.3531C62.2209 19.5352 61.9874 20.5569 61.5204 21.4179C61.0679 22.279 60.4185 22.9431 59.572 23.4101C58.7401 23.8771 57.755 24.1106 56.6166 24.1106ZM56.6166 22.009C57.4777 22.009 58.1636 21.7098 58.6744 21.1115C59.1852 20.4985 59.4406 19.579 59.4406 18.3531C59.4406 17.1271 59.1852 16.215 58.6744 15.6166C58.1636 15.0182 57.4777 14.719 56.6166 14.719C55.7555 14.719 55.0696 15.0182 54.5588 15.6166C54.0479 16.215 53.7925 17.1271 53.7925 18.3531C53.7925 19.579 54.0479 20.4985 54.5588 21.1115C55.0696 21.7098 55.7555 22.009 56.6166 22.009Z" fill="black"/>
<path d="M69.6597 24.1106C68.5213 24.1106 67.5216 23.8771 66.6605 23.4101C65.814 22.9431 65.1573 22.279 64.6903 21.4179C64.2232 20.5423 63.9897 19.5061 63.9897 18.3093C63.9897 17.1125 64.2232 16.0909 64.6903 15.2444C65.1719 14.3979 65.8359 13.7485 66.6824 13.2961C67.5289 12.8436 68.5213 12.6174 69.6597 12.6174C70.3894 12.6174 71.0973 12.7342 71.7832 12.9677C72.4838 13.1866 73.053 13.5077 73.4908 13.9309L72.6589 15.8355C72.2648 15.4706 71.8197 15.2006 71.3235 15.0255C70.8419 14.8358 70.3675 14.7409 69.9005 14.7409C68.9227 14.7409 68.1565 15.0474 67.6019 15.6604C67.0619 16.2734 66.7919 17.1636 66.7919 18.3312C66.7919 19.4988 67.0619 20.3963 67.6019 21.0239C68.1565 21.6515 68.9227 21.9652 69.9005 21.9652C70.353 21.9652 70.82 21.8777 71.3016 21.7025C71.7978 21.5274 72.2503 21.2574 72.6589 20.8925L73.4908 22.7752C73.0384 23.1985 72.4619 23.5269 71.7613 23.7604C71.0754 23.9939 70.3748 24.1106 69.6597 24.1106Z" fill="black"/>
<path d="M75.6123 23.8917V12.8363H78.3487V23.8917H75.6123ZM75.459 10.7566V8.08578H78.502V10.7566H75.459Z" fill="black"/>
<path d="M85.5893 24.1106C84.6261 24.1106 83.7796 23.8844 83.0499 23.432C82.3201 22.965 81.7509 22.3009 81.3423 21.4398C80.9336 20.5788 80.7293 19.5498 80.7293 18.3531C80.7293 17.1563 80.9336 16.1347 81.3423 15.2882C81.7509 14.4271 82.3201 13.7704 83.0499 13.3179C83.7796 12.8509 84.6261 12.6174 85.5893 12.6174C86.5234 12.6174 87.3407 12.8509 88.0412 13.3179C88.7563 13.7704 89.2307 14.3834 89.4642 15.1569H89.2234L89.4642 12.8363H92.0912C92.0474 13.2888 92.0036 13.7485 91.9599 14.2155C91.9307 14.6825 91.9161 15.1423 91.9161 15.5947V23.8917H89.2015L89.1796 21.615H89.4423C89.2088 22.3739 88.7344 22.9796 88.0193 23.432C87.3042 23.8844 86.4942 24.1106 85.5893 24.1106ZM86.3555 22.009C87.2166 22.009 87.9099 21.7098 88.4353 21.1115C88.9607 20.4985 89.2234 19.579 89.2234 18.3531C89.2234 17.1271 88.9607 16.215 88.4353 15.6166C87.9099 15.0182 87.2166 14.719 86.3555 14.719C85.4944 14.719 84.8012 15.0182 84.2758 15.6166C83.7504 16.215 83.4877 17.1271 83.4877 18.3531C83.4877 19.579 83.7431 20.4985 84.2539 21.1115C84.7793 21.7098 85.4799 22.009 86.3555 22.009Z" fill="black"/>
<path d="M94.8959 23.8917V7.7793H97.6324V23.8917H94.8959Z" fill="black"/>
<path d="M106.931 24.1106C105.997 24.1106 105.179 23.8844 104.479 23.432C103.778 22.965 103.311 22.3374 103.078 21.5493H103.319V23.8917H100.604V7.7793H103.341V15.0912H103.078C103.326 14.3323 103.8 13.7339 104.501 13.2961C105.201 12.8436 106.011 12.6174 106.931 12.6174C107.909 12.6174 108.762 12.8509 109.492 13.3179C110.222 13.785 110.791 14.449 111.2 15.3101C111.608 16.1566 111.813 17.1782 111.813 18.375C111.813 19.5717 111.608 20.6006 111.2 21.4617C110.791 22.3082 110.215 22.965 109.47 23.432C108.741 23.8844 107.894 24.1106 106.931 24.1106ZM106.165 22.009C107.026 22.009 107.719 21.7098 108.244 21.1115C108.784 20.5131 109.054 19.6009 109.054 18.375C109.054 17.149 108.784 16.2369 108.244 15.6385C107.719 15.0255 107.026 14.719 106.165 14.719C105.304 14.719 104.61 15.0182 104.085 15.6166C103.559 16.215 103.297 17.1271 103.297 18.3531C103.297 19.579 103.559 20.4985 104.085 21.1115C104.61 21.7098 105.304 22.009 106.165 22.009Z" fill="#1570EF"/>
<path d="M119.171 24.1106C118.033 24.1106 117.047 23.8771 116.216 23.4101C115.384 22.9431 114.734 22.279 114.267 21.4179C113.815 20.5569 113.589 19.5352 113.589 18.3531C113.589 17.1709 113.815 16.1566 114.267 15.3101C114.734 14.449 115.384 13.785 116.216 13.3179C117.047 12.8509 118.033 12.6174 119.171 12.6174C120.309 12.6174 121.294 12.8509 122.126 13.3179C122.973 13.785 123.622 14.449 124.075 15.3101C124.542 16.1566 124.775 17.1709 124.775 18.3531C124.775 19.5352 124.542 20.5569 124.075 21.4179C123.622 22.279 122.973 22.9431 122.126 23.4101C121.294 23.8771 120.309 24.1106 119.171 24.1106ZM119.171 22.009C120.032 22.009 120.718 21.7098 121.229 21.1115C121.74 20.4985 121.995 19.579 121.995 18.3531C121.995 17.1271 121.74 16.215 121.229 15.6166C120.718 15.0182 120.032 14.719 119.171 14.719C118.31 14.719 117.624 15.0182 117.113 15.6166C116.602 16.215 116.347 17.1271 116.347 18.3531C116.347 19.579 116.602 20.4985 117.113 21.1115C117.624 21.7098 118.31 22.009 119.171 22.009Z" fill="#1570EF"/>
<path d="M131.404 24.1106C130.441 24.1106 129.594 23.8844 128.865 23.432C128.135 22.965 127.566 22.3009 127.157 21.4398C126.748 20.5788 126.544 19.5498 126.544 18.3531C126.544 17.1563 126.748 16.1347 127.157 15.2882C127.566 14.4271 128.135 13.7704 128.865 13.3179C129.594 12.8509 130.441 12.6174 131.404 12.6174C132.338 12.6174 133.155 12.8509 133.856 13.3179C134.571 13.7704 135.045 14.3834 135.279 15.1569H135.038L135.279 12.8363H137.906C137.862 13.2888 137.818 13.7485 137.775 14.2155C137.745 14.6825 137.731 15.1423 137.731 15.5947V23.8917H135.016L134.994 21.615H135.257C135.024 22.3739 134.549 22.9796 133.834 23.432C133.119 23.8844 132.309 24.1106 131.404 24.1106ZM132.17 22.009C133.031 22.009 133.725 21.7098 134.25 21.1115C134.775 20.4985 135.038 19.579 135.038 18.3531C135.038 17.1271 134.775 16.215 134.25 15.6166C133.725 15.0182 133.031 14.719 132.17 14.719C131.309 14.719 130.616 15.0182 130.091 15.6166C129.565 16.215 129.302 17.1271 129.302 18.3531C129.302 19.579 129.558 20.4985 130.069 21.1115C130.594 21.7098 131.295 22.009 132.17 22.009Z" fill="#1570EF"/>
<path d="M145.439 24.1106C144.126 24.1106 143.133 23.7677 142.462 23.0817C141.791 22.3958 141.455 21.3669 141.455 19.995V14.8942H139.332V12.8363H141.455V10.0123L144.192 9.31173V12.8363H147.147V14.8942H144.192V19.8198C144.192 20.5788 144.337 21.1115 144.629 21.4179C144.921 21.7244 145.323 21.8777 145.833 21.8777C146.111 21.8777 146.344 21.8558 146.534 21.812C146.738 21.7682 146.935 21.7098 147.125 21.6369V23.8042C146.877 23.9063 146.6 23.9793 146.293 24.0231C146.001 24.0815 145.717 24.1106 145.439 24.1106Z" fill="#1570EF"/>
</svg>
